# xmcd
#
# Track frame offsets: 
#        150
#        17278
#        28283
#        39617
#        51083
#        63959
#        75491
#        86138
#        97518
#        110361
#        122344
#        135444
#        145003
#        158461
#        171008
#        182047
#        194850
#        208047
#        217954
#        229246
#        243017
#        260637
#        272001
#        287571
#
# Disc length: 3983 seconds
#
# Revision: 0
# Processed by: cddbd v1.5.2PL0 Copyright (c) Steve Scherf et al.
# Submitted via: ExactAudioCopy v1.1
#
DISCID=3f0f8d18
DTITLE=Albert King - Complete King and Bobbin Recordings (Collectibles)
DYEAR=2004
DGENRE=Blues
TTITLE0=Ooh-Ee Baby (mono)
TTITLE1=Why Are You So Mean To Me (mono)
TTITLE2=Need You By My Side (mono)
TTITLE3=The Time Has Come (mono)
TTITLE4=I Walked All Night Long (mono)
TTITLE5=I've Made Nights By Myself (mono)
TTITLE6=Old Blue Ribbon (stereo)
TTITLE7=I've Made Nights By Myself (alt) (stereo)
TTITLE8=Let's Have A Natural Ball (mono)
TTITLE9=Blues At Sunrise (mono)
TTITLE10=Don't Throw Your Love On Me So Strong (mono)
TTITLE11=This Morning (mono)
TTITLE12=Travelin' To California (mono)
TTITLE13=Dyna Flow (mono)
TTITLE14=I Get Evil (mono)
TTITLE15=What Can I Do To Change Your Mind (mono)
TTITLE16=I'll Do Anything You Say (mono)
TTITLE17=Got To Be Some Changes Made (mono)
TTITLE18=This Funny Feeling (stereo)
TTITLE19=Had You Told It Like It Was (It Wouldn't Be Like It Is) (ster
TTITLE19=eo)
TTITLE20=Ooh-Ee Baby (take 3 - Lp version) (mono)
TTITLE21=Blues At Sunrise (alt) (mono)
TTITLE22=The Time Has Come (alt - take 1) (mono)
TTITLE23=Why Are You So Mean To Me (alt - take 4) (mono)
EXTD=
EXTT0=
EXTT1=
EXTT2=
EXTT3=
EXTT4=
EXTT5=
EXTT6=
EXTT7=
EXTT8=
EXTT9=
EXTT10=
EXTT11=
EXTT12=
EXTT13=
EXTT14=
EXTT15=
EXTT16=
EXTT17=
EXTT18=
EXTT19=
EXTT20=
EXTT21=
EXTT22=
EXTT23=
PLAYORDER=
